# xmcd
#
# Track frame offsets:
# 150
# 18889
# 35968
# 53805
# 76593
# 95585
# 109678
# 129336
# 153210
# 176670
# 197523
# 211400
# 234827
# 261151
#
# Disc length: 3768 seconds
#
#
# Revision: 0
# Processed by: cddbd v1.5.1PL0 Copyright (c) Steve Scherf et al.
# Submitted via: FreeRIP 2.90 
#
DISCID=ab0eb60e
DTITLE=Lisandro Amaral - Querencia e Caminho
DYEAR=1900
DGENRE=Gaucha
TTITLE0=No Garrão de um Milonguear
TTITLE1=Romance de Lua e Estrada
TTITLE2=Ponciano te vai com Deus
TTITLE3=Chamarrita y Vichadero
TTITLE4=Chote Fronteiriço
TTITLE5=Fazendo Tropilha
TTITLE6=Ritual de Morte e Manada
TTITLE7=Meu por-do-sol
TTITLE8=Romance do João Guerreiro
TTITLE9=Chamando Tropa
TTITLE10=Milonga no fim do Laço
TTITLE11=Do Meu Coração
TTITLE12=De Cruzada
TTITLE13=No Tempo do Quintino
EXTD=
EXTT0=
EXTT1=
EXTT2=
EXTT3=
EXTT4=
EXTT5=
EXTT6=
EXTT7=
EXTT8=
EXTT9=
EXTT10=
EXTT11=
EXTT12=
EXTT13=
PLAYORDER=
